<?xml version="1.0" encoding="UTF-8" standalone="no"?>
<!-- Created with Inkscape (http://www.inkscape.org/) -->

<svg
   xmlns:dc="http://purl.org/dc/elements/1.1/"
   xmlns:cc="http://creativecommons.org/ns#"
   xmlns:rdf="http://www.w3.org/1999/02/22-rdf-syntax-ns#"
   xmlns:svg="http://www.w3.org/2000/svg"
   xmlns="http://www.w3.org/2000/svg"
   xmlns:sodipodi="http://sodipodi.sourceforge.net/DTD/sodipodi-0.dtd"
   xmlns:inkscape="http://www.inkscape.org/namespaces/inkscape"
   width="299.49484mm"
   height="112.24584mm"
   viewBox="0 0 1061.2022 397.72149"
   id="svg2"
   version="1.1"
   inkscape:version="0.91 r13725"
   inkscape:export-filename="cure_your_ailment.png"
   inkscape:export-xdpi="90"
   inkscape:export-ydpi="90"
   sodipodi:docname="cure_your_ailment_lettering.svg">
  <defs
     id="defs4" />
  <sodipodi:namedview
     id="base"
     pagecolor="#ffffff"
     bordercolor="#666666"
     borderopacity="1.0"
     inkscape:pageopacity="0.0"
     inkscape:pageshadow="2"
     inkscape:zoom="0.175"
     inkscape:cx="702.83291"
     inkscape:cy="437.13443"
     inkscape:document-units="px"
     inkscape:current-layer="layer1"
     showgrid="false"
     fit-margin-top="0"
     fit-margin-left="0"
     fit-margin-right="0"
     fit-margin-bottom="0"
     inkscape:window-width="1280"
     inkscape:window-height="755"
     inkscape:window-x="0"
     inkscape:window-y="1"
     inkscape:window-maximized="1" />
  <metadata
     id="metadata7">
    <rdf:RDF>
      <cc:Work
         rdf:about="">
        <dc:format>image/svg+xml</dc:format>
        <dc:type
           rdf:resource="http://purl.org/dc/dcmitype/StillImage" />
        <dc:title />
      </cc:Work>
    </rdf:RDF>
  </metadata>
  <g
     inkscape:label="Layer 1"
     inkscape:groupmode="layer"
     id="layer1"
     transform="translate(-1388.2916,186.49495)">
    <path
       id="path4244"
       style="fill:#ffffff;opacity:1;stroke:none;fill-opacity:1"
       d="m 1770.5872,175.2846 c -4.0909,-3.05354 -9.2939,-10.80736 -11.1458,-16.6103 -1.4053,-4.40326 -1.6557,-10.27571 -1.6557,-38.82791 0,-18.502 -0.4268,-38.892453 -0.9485,-45.312103 -0.5218,-6.41965 -1.1868,-15.10914 -1.4778,-19.30998 l -0.5292,-7.63789 2.8481,-1.17971 c 3.7373,-1.54808 7.671,0.0838 15.3706,6.37666 6.5879,5.3842 9.4343,10.19668 9.8231,16.60782 0.1491,2.45906 0.6751,5.59601 1.1689,6.97101 0.4938,1.375 0.8931,19.01661 0.8874,39.203583 -0.01,33.5558 0.134,36.74476 1.6735,37.18369 0.9261,0.26406 7.9839,0.7799 15.6839,1.14632 24.5263,1.16714 34.4986,4.22029 37.507,11.48338 1.1417,2.75613 1.1019,3.56491 -0.2875,5.84106 l -1.6127,2.64197 -18.3034,-0.33536 c -19.0994,-0.34994 -40.0622,1.11183 -40.6361,2.83363 -0.5631,1.68906 -5.5147,1.05226 -8.3658,-1.07587 z m 111.1985,1.4488 c -8.3643,-4.94633 -11.4881,-8.93854 -13.2014,-16.8712 -1.1665,-5.40087 -1.138,-13.40995 0.1561,-43.85303 0.6045,-14.21916 0.9745,-33.182083 0.8222,-42.139813 -0.3586,-21.092 -0.9007,-20.34275 14.5787,-20.14835 10.7626,0.13516 11.4454,0.27318 15.994,3.2329 4.5621,2.96856 15.8208,16.6141 21.6504,26.24039 2.7528,4.54559 5.3332,5.9662 7.5281,4.14455 0.7877,-0.65373 4.8229,-7.55341 8.967,-15.33262 4.1441,-7.77922 8.1951,-15.26903 9.0021,-16.64403 0.807,-1.375 2.1527,-3.95366 2.9903,-5.73036 1.9589,-4.1552 4.9153,-6.04021 11.7073,-7.46486 5.2028,-1.09129 5.7977,-0.99682 12.0006,1.90589 7.2914,3.41204 7.2604,3.35445 8.7533,16.28933 0.4761,4.125 1.7737,12.45 2.8836,18.5 2.1479,11.70852 4.0621,43.994033 4.1501,70.000003 0.028,8.25 0.3118,17.02839 0.6309,19.50753 0.8047,6.25358 -2.0475,8.62201 -9.7583,8.10316 -0.9048,-0.0609 -2.7048,-1.25559 -4,-2.65491 -1.2953,-1.39932 -3.5927,-3.21099 -5.1055,-4.02593 -1.742,-0.93844 -4.0999,-4.13043 -6.431,-8.70578 l -3.6805,-7.22407 -0.7646,-28.25749 c -0.8766,-32.393943 -1.2019,-34.035063 -5.3535,-27.006923 -1.0512,1.779573 -4.4525,5.967223 -7.5585,9.305873 -3.1059,3.33866 -5.979,7.39262 -6.3847,9.00882 -1.1223,4.47178 -2.4231,5.44972 -7.2488,5.44972 -8.7498,0 -15.0687,-5.98781 -24.7992,-23.500003 -10.801,-19.43858 -13.4657,-21.11032 -12.3533,-7.75 1.0315,12.389853 0.8297,37.393673 -0.3733,46.250003 -0.5603,4.125 -1.1112,15.15 -1.2242,24.5 l -0.2053,17 -4.4363,0.26617 c -3.3378,0.20026 -5.5505,-0.39276 -8.9363,-2.39497 z m -185.0255,2.17445 c -3.4227,-1.8625 -12.5447,-12.48546 -14.3077,-16.66204 -0.7856,-1.86099 -2.157,-5.08638 -3.0476,-7.16754 -1.3479,-3.14998 -1.6169,-7.92472 -1.6058,-28.5 0.014,-26.614583 -0.6646,-38.427023 -4.7086,-81.900473 l -0.4823,-5.1844 3.9889,-2.03498 c 3.6652,-1.869838 4.4074,-1.926398 9.1469,-0.697008 2.8991,0.752018 6.5015,2.599848 8.2259,4.219378 3.6187,3.39862 6.763,9.73783 6.7939,13.69715 0.012,1.54866 0.4506,3.61683 0.9746,4.59594 0.9316,1.74066 3.1604,16.13474 3.575,23.08832 1.7487,29.327553 2.4981,46.854363 2.9193,68.273053 0.4858,24.70051 0.4246,25.85533 -1.47,27.75 -2.2834,2.28338 -6.3739,2.4971 -10.0025,0.5226 z m -109.43,-70.16722 c 3.916,-0.98368 6.4555,-2.1479 6.4555,-2.95952 0,-0.73586 -2.25,-6.505743 -5,-12.821953 -2.75,-6.3162 -5,-11.90504 -5,-12.41964 0,-0.5146 -1.158,-3.46501 -2.5733,-6.55648 -2.7514,-6.00995 -5.4267,-7.46021 -5.4267,-2.94184 0,1.47345 -0.4049,4.06095 -0.8998,5.75 -1.0005,3.41456 -4.4506,18.15087 -6.1911,26.444413 -0.9162,4.36545 -0.8728,5.53498 0.2316,6.23469 2.1904,1.38786 11.4326,1.02143 18.4038,-0.72967 z m -51.0445,74.93207 c -6.14,-1.28061 -16.9726,-17.5156 -14.7054,-22.03927 0.4883,-0.97418 1.6854,-5.37123 2.6603,-9.77123 3.414,-15.40882 7.4754,-30.41741 11.8121,-43.65171 2.4058,-7.34156 4.9632,-15.373293 5.6831,-17.848293 0.72,-2.475 1.8889,-6.3 2.5976,-8.5 0.7088,-2.2 2.2275,-7.6 3.3749,-12 1.9074,-7.31469 5.0889,-19.16692 8.5897,-32 2.5344,-9.290458 3.9336,-12.382128 6.0378,-13.340858 2.1477,-0.97857 7.9098,-0.23703 12.486,1.60685 4.6572,1.87651 14.6064,13.696938 18.9003,22.455088 2.2325,4.5534 4.4604,8.95392 4.9509,9.77892 4.0428,6.79949 14.4896,30.91244 19.2383,44.405363 0.8227,2.33769 3.1141,5.34831 5.7082,7.5 6.4905,5.38356 9.0605,11.80039 5.9656,14.89529 -1.4689,1.46883 0.156,6.57117 3.8048,11.94801 1.3177,1.94174 2.4058,4.25514 2.4181,5.14089 0.012,0.88575 0.9022,2.73545 1.9777,4.11045 1.0756,1.375 1.9655,2.90676 1.9778,3.40392 0.012,0.49716 1.8491,5.50531 4.0819,11.12922 3.1806,8.01086 3.9927,11.27305 3.75,15.06339 -0.3024,4.72475 -0.4014,4.85968 -4.2249,5.7592 -5.1709,1.21651 -8.8947,-0.79412 -16.4713,-8.89355 -5.7639,-6.16162 -9.8463,-13.39324 -14.419,-25.54177 -3.4925,-9.27861 -7.5294,-16.91982 -9.2973,-17.59823 -1.4988,-0.57516 -12.837,0.90416 -21.1533,2.75993 -2.3408,0.52236 -7.5991,0.98411 -11.685,1.02611 -4.086,0.042 -8.0416,0.59734 -8.7902,1.23408 -1.7032,1.44867 -2.9445,5.26206 -6.2357,19.1577 -1.433,6.05 -4.1498,14.15 -6.0374,18 -1.8876,3.85 -3.6799,8.2375 -3.9828,9.75 -0.4724,2.35806 -1.0114,2.73059 -3.7818,2.61382 -1.7771,-0.0749 -4.131,-0.3239 -5.231,-0.55332 z m 504.1428,3.22187 c -8.3139,-5.64202 -10.0251,-7.34755 -13.8926,-13.84706 l -4.055,-6.81469 0.8278,-41.68531 c 0.4552,-22.92692 0.8704,-50.390693 0.9224,-61.030603 0.1112,-22.70295 0.059,-22.5847 9.7142,-21.92617 5.6013,0.38203 8.3354,1.73233 16.052,7.92762 2.6387,2.11847 2.9797,2.14287 12.6779,0.90694 14.0271,-1.7876 29.655,0.30767 32.3452,4.3366 1.2954,1.94012 0.8557,2.40163 -3.9847,4.18201 -2.6125,0.96092 -5.875,2.73135 -7.25,3.93427 -4.1375,3.61968 -11.4738,6.55427 -20.1889,8.07573 -4.5329,0.79133 -8.5993,1.79648 -9.0365,2.23366 -0.4371,0.43718 -1.0617,7.83509 -1.3879,16.4398 l -0.5931,15.644933 2.7985,0.70238 c 1.9233,0.4827 5.202,-0.12876 10.4833,-1.95505 9.7466,-3.37038 14.7891,-3.40718 20.3496,-0.1485 5.4348,3.18498 7.4017,5.37479 8.139,9.06109 0.4531,2.26538 0.055,3.4343 -1.7381,5.10127 -3.5615,3.31129 -19.2687,8.31287 -26.1331,8.32145 -3.1939,0.004 -7.7554,0.49784 -10.1367,1.09744 l -4.3295,1.09019 -0.6726,10.15981 c -0.3699,5.5879 -0.8232,12.50676 -1.0074,15.37523 -0.2372,3.69395 0.094,5.57127 1.1349,6.43525 0.9728,0.80731 5.9252,1.26393 14.6442,1.35021 19.5143,0.19313 28.0791,3.77552 29.657,12.40466 0.6774,3.70452 0.4896,4.36441 -1.7422,6.11996 -4.0502,3.18583 -9.1349,3.98974 -23.8527,3.77118 -13.241,-0.19662 -14.1527,-0.0802 -19.5759,2.49855 -3.1284,1.48763 -5.8781,2.70478 -6.1104,2.70478 -0.2323,0 -2.0587,-1.11044 -4.0587,-2.46763 z m 152.4326,5.3739 c -7.6868,-1.62753 -20.8137,-19.95638 -34.9937,-48.86098 -7.0845,-14.44126 -8.5672,-16.89312 -9.5943,-15.86597 -0.7256,0.72557 -2.3764,15.89431 -2.4835,22.82068 -0.047,3.025 -0.06,10.43289 -0.029,16.46198 0.053,10.34456 -0.082,11.10032 -2.4006,13.41843 l -2.4564,2.45645 -9.5925,-2.27931 c -8.6379,-2.05248 -9.8629,-2.63353 -12.3089,-5.83845 -2.3385,-3.06408 -2.7088,-4.47435 -2.6624,-10.13912 0.1137,-13.88894 1.6103,-44.87033 2.4674,-51.07998 0.4935,-3.575 1.1714,-11.45 1.5065,-17.500003 1.1342,-20.48094 3.216,-35.67986 5.2625,-38.4209 2.4062,-3.22283 8.2769,-4.53973 13.133,-2.94595 7.0419,2.31117 10.5567,5.38033 14.1365,12.34403 1.8921,3.68073 4.2844,8.34162 5.3161,10.35753 2.6112,5.10191 10.7721,27.576033 14.585,40.165293 3.9168,12.93208 4.7379,15 5.9564,15 0.5281,0 1.239,-2.1375 1.5798,-4.75 0.3408,-2.6125 1.4728,-10.825 2.5155,-18.25 1.0428,-7.425 2.3952,-18.450003 3.0055,-24.500003 0.6102,-6.05 1.5744,-13.7 2.1427,-17 0.5682,-3.3 1.1878,-7.125 1.3769,-8.5 0.1891,-1.375 1.0939,-5.875 2.0107,-10 0.9168,-4.125 2.0694,-9.49069 2.5615,-11.92375 1.1817,-5.843398 3.0802,-7.736818 9.0386,-9.014668 8.7561,-1.87785 11.4287,-1.43834 15.9183,2.61778 3.0466,2.7524 3.9286,4.20102 3.5007,5.75 -3.3354,12.075598 -7.0586,37.896048 -12.6271,87.570641 -0.6474,5.775 -1.8296,12.3 -2.6272,14.5 -2.2884,6.31239 -3.4251,10.57863 -4.3964,16.5 -2.2335,13.61536 -2.4884,17.81509 -1.2838,21.14355 1.6128,4.45608 1.6764,12.08718 0.117,14.03766 -1.643,2.055 -4.4654,2.61628 -8.6746,1.72506 z m 89.1969,17.45682 c -4.6114,-2.27353 -7.6882,-5.65802 -10.5835,-11.64199 -4.0411,-8.35186 -5.7101,-17.95095 -4.6496,-26.74165 0.4963,-4.1137 1.1154,-10.40445 1.3758,-13.97945 1.6045,-22.02563 2.7812,-36.22908 4.0596,-49 0.7982,-7.975 1.5805,-19.675003 1.7384,-26.000003 l 0.2871,-11.5 -7.5,-0.68394 c -9.8502,-0.89826 -14.4543,-2.07558 -20.4195,-5.22157 -2.7057,-1.42697 -5.5078,-2.59449 -6.2269,-2.59449 -2.0205,0 -4.5014,-4.44569 -3.6883,-6.6091 2.075,-5.52045 9.1695,-8.01829 26.5658,-9.35331 8.1022,-0.62177 18.2272,-1.55871 22.5,-2.0821 4.2729,-0.52339 11.8189,-1.44826 16.7689,-2.05526 12.9974,-1.59383 27.968,-0.7594 33,1.83935 4.0669,2.10034 6.9793,4.93801 9.2754,9.03749 1.1342,2.02497 0.9635,2.61073 -1.5411,5.29067 -2.5275,2.70448 -3.5815,3.06444 -10.2754,3.5093 -4.1024,0.27265 -9.7089,0.90947 -12.4589,1.41517 -2.75,0.5057 -8.6,1.45533 -13,2.11029 -4.4,0.65495 -8.4996,1.57768 -9.1101,2.05051 -1.3775,1.06671 -0.6084,5.53575 1.5145,8.80129 1.1773,1.81084 1.5789,4.82591 1.532,11.5 -0.081,11.47031 -1.0816,27.473653 -2.4422,39.045703 -2.3512,19.99686 -2.9869,26.3745 -3.4389,34.5 -0.2601,4.675 -0.9378,12.55 -1.5059,17.5 -0.5682,4.95 -1.0367,13.30906 -1.0412,18.57569 -0.01,8.71075 -0.2173,9.77208 -2.3227,11.75 -2.7406,2.57469 -4.1043,2.6618 -8.4133,0.5374 z"
       inkscape:connector-curvature="0" />
    <path
       id="path4226"
       style="fill:#ffffff;opacity:1;stroke:none;fill-opacity:1"
       d="m 2305.5828,-27.522944 c -5.8871,-0.99234 -6.4038,-1.36381 -19.9158,-14.31866 -6.1113,-5.85934 -11.5005,-10.65334 -11.976,-10.65334 -0.4756,0 -1.73,1.6875 -2.7877,3.75 -2.4898,4.85542 -5.7374,7.71131 -15.4331,13.5717 -6.4245,3.88316 -21.9455,2.79856 -29.0857,-2.03249 -6.4047,-4.33342 -15.0088,-13.50262 -17.3559,-18.49593 -3.7979,-8.07963 -4.7068,-19.58023 -4.7255,-59.793276 -0.016,-34.01403 0.1472,-37.8012 1.7532,-40.74019 1.7788,-3.25522 8.1015,-7.26463 11.4396,-7.25423 4.8973,0.0153 9.4244,2.23938 11.7999,5.79715 1.3577,2.0335 3.1324,4.60302 3.9437,5.71005 1.155,1.576 1.5899,6.89261 2.0042,24.5 0.802,34.088336 2.8389,70.040506 4.0821,72.052026 0.3178,0.51435 1.3887,0.93519 2.3796,0.93519 3.6866,0 12.871,-21.95971 17.5662,-42 2.0559,-8.775216 2.9116,-15.883346 3.6117,-29.999996 1.0288,-20.74477 2.4077,-32.69898 3.9919,-34.60787 2.0026,-2.41296 10.761,-4.64164 15.4674,-3.93587 5.3767,0.80629 7.1776,2.46146 7.9708,7.32589 0.3334,2.04482 1.3193,5.40506 2.1908,7.4672 1.4074,3.32986 1.4394,5.25461 0.2861,17.20326 -1.2891,13.35521 -1.0499,22.3632 1.0898,41.047386 1.2882,11.24796 3.1687,19.1454 7.713,32.3914 3.2552,9.48827 4.1573,11.0301 10.3789,17.74012 5.3071,5.72373 6.8138,8.01974 6.8138,10.38334 0,4.61781 -3.3418,5.6194 -13.203,3.95714 z m 67.9218,-94.361946 c 8.2051,-5.31178 9.1856,-6.41915 12.603,-14.2351 3.0882,-7.0627 3.4063,-12.88176 1.0779,-19.71531 -1.8787,-5.51369 -4.1809,-7.02517 -10.3713,-6.80905 -9.9138,0.34611 -18.4093,5.70061 -16.0473,10.11415 0.5836,1.09041 1.5013,6.60693 2.0395,12.25892 1.8253,19.1726 2.366,22.77634 3.4168,22.77634 0.2751,0 3.5518,-1.97548 7.2814,-4.38995 z m 58.2812,96.921966 c -6.7319,-1.92855 -20.71,-8.74292 -27.5,-13.40638 -3.3,-2.26648 -6.3536,-4.12195 -6.7859,-4.12326 -1.1919,-0.004 -19.8623,-11.93827 -22.7141,-14.51954 -3.072,-2.78053 -10.9803,-6.83591 -11.7769,-6.03924 -0.3208,0.32072 -0.6146,7.73217 -0.6531,16.46989 l -0.07,15.88675 -3.0724,2.10711 -3.0725,2.10711 -5.7786,-1.98815 c -11.6065,-3.9932 -14.0654,-6.64941 -18.6049,-20.0977 -1.8008,-5.33472 -2.1893,-8.89591 -2.2836,-20.92861 -0.1732,-22.11056 2.2458,-71.784336 3.9034,-80.154796 0.2891,-1.46014 0.049,-2.9492 -0.5329,-3.30902 -2.2012,-1.36041 -1.1446,-8.11722 1.9338,-12.36686 5.6085,-7.74227 15.0696,-12.30462 29.4985,-14.22474 9.4573,-1.25855 13.5577,-0.94276 18.7081,1.44081 1.8156,0.84025 6.0011,2.51066 9.3011,3.71202 9.0976,3.31198 18.997,14.10247 21.8971,23.86798 3.7886,12.75755 0.9128,28.23539 -7.062,38.00928 -5.8339,7.14995 -11.6506,13.025326 -12.8952,13.025326 -0.7076,0 -2.5585,1.06722 -4.1132,2.3716 -1.5547,1.30438 -6.5392,4.31286 -11.0767,6.68551 -4.5375,2.37266 -8.25,4.93856 -8.25,5.70201 0,2.27756 11.0854,12.39055 20.0918,18.3294 19.8279,13.07458 24.9543,15.99535 34.616,19.72282 15.9753,6.16324 25.087,12.88568 23.8962,17.63018 -1.2594,5.01817 -8.4961,6.6997 -17.604,4.0905 z m -294.6844,-15.689 c 9.6773,-5.12592 14.587,-24.5915 13.8327,-54.84302 -0.2947,-11.819656 -3.7859,-24.975126 -8.8497,-33.347036 -3.2177,-5.31967 -5.3692,-5.6066 -6.7555,-0.90088 -0.5262,1.78636 -1.3137,3.24792 -1.75,3.24792 -0.4363,0 -0.7932,0.86365 -0.7932,1.91923 0,2.50225 -2.8213,14.13714 -3.9087,16.11923 -0.4642,0.84615 -1.1506,3.54615 -1.5254,6 -0.827,5.415576 -3.4041,17.288046 -4.6955,21.632306 -0.5184,1.74393 -1.2144,9.72757 -1.5466,17.74144 l -0.6041,14.57067 4.5086,4.50856 c 4.7415,4.74156 7.8409,5.60094 12.0874,3.35158 z m -4.9127,20.10753 c -9.3758,-1.22382 -12.629,-3.09412 -23.1557,-13.3126 -10.8052,-10.48871 -17.8388,-21.68959 -18.3158,-29.1674 -0.8535,-13.38097 4.294,-37.807766 13.2699,-62.970546 6.0792,-17.04194 9.9362,-25.38133 12.9904,-28.08638 7.2751,-6.44361 12.383,-7.20218 20.9047,-3.10462 3.0781,1.48005 6.4531,2.70507 7.5,2.72227 3.2832,0.0539 11.5895,4.69193 15.8318,8.84003 2.2394,2.18968 5.8717,5.55324 8.0717,7.47459 2.2985,2.0074 4.8263,5.54806 5.9425,8.32374 1.0684,2.6567 3.2059,6.83097 4.75,9.27615 1.7891,2.83305 2.8075,5.80809 2.8075,8.20121 0,2.06549 0.6863,6.36489 1.5252,9.55422 1.7965,6.830456 1.9981,15.674336 0.5286,23.185276 -0.5796,2.96257 -1.0538,7.9758 -1.0538,11.14052 0,6.99059 -4.4471,24.71072 -6.8948,27.47299 -0.9747,1.1 -2.9597,4.57364 -4.4112,7.71921 -2.2117,4.79321 -3.4125,6.11091 -7.4165,8.13847 -10.5522,5.34349 -18.5566,6.46178 -32.8745,4.59287 z m -103.247,21.02135033 c -3.4439,-1.43545 -10.152,-7.43621003 -12.3463,-11.04437033 -3.1099,-5.11393 -3.8122,-11.41105 -2.2076,-19.7971 2.6876,-14.04699 4.001,-18.54665 11.4219,-39.13043 2.2803,-6.325 5.2476,-14.65 6.5941,-18.5 l 2.4481,-7 -2.2831,-1.81073 c -15.1771,-12.037026 -17.2465,-14.169626 -22.0168,-22.689266 -6.4914,-11.59331 -10.0269,-17.6235 -11.1398,-19 -0.667,-0.825 -1.8293,-2.7327 -2.5829,-4.23933 -0.7536,-1.50664 -3.7746,-5.55664 -6.7135,-9 -2.9389,-3.44337 -5.8643,-7.95703 -6.5009,-10.03037 -1.0237,-3.33362 -0.9361,-3.94487 0.7566,-5.284 4.9398,-3.90781 6.5449,-4.56183 11.2861,-4.59856 5.3276,-0.0413 10.8769,2.52721 21.551,9.97486 7.7391,5.39981 15.9229,15.81561 23.0557,29.34366 2.5617,4.85856 5.0726,8.83374 5.5799,8.83374 0.8697,0 7.0752,-12.34508 10.0534,-20 0.7489,-1.925 4.3343,-9.35 7.9676,-16.5 5.2912,-10.41281 7.3835,-13.54068 10.5132,-15.71678 7.527,-5.23358 16.1773,-2.873 18.3673,5.01227 1.5114,5.44185 1.2916,11.75082 -0.46,13.20451 -0.825,0.68469 -1.5,1.80144 -1.5,2.48168 0,0.68023 -1.4001,3.86043 -3.1112,7.06712 -1.7112,3.20668 -3.6819,7.4475 -4.3792,9.42404 -0.6974,1.97654 -2.6723,6.59747 -4.3888,10.26873 -1.7164,3.67127 -3.1208,6.94763 -3.1208,7.28081 0,0.33317 -1.18,3.16444 -2.6223,6.2917 -1.4422,3.12725 -2.9835,6.81092 -3.4251,8.18592 -1.9359,6.02865 -4.9939,13.441256 -5.9319,14.379326 -0.5614,0.56137 -1.0207,2.03879 -1.0207,3.28316 0,1.24437 -0.8401,4.64187 -1.8668,7.55 -1.6602,4.70208 -4.1121,13.21963 -8.8629,30.78751 -2.8428,10.51246 -5.4803,19.52044 -6.7343,23 -0.6938,1.925 -1.342,5.975 -1.4405,9 -0.1931,5.93265 -2.9925,15.3256203 -5.2363,17.56932033 -1.8783,1.87838 -6.8408,2.59568997 -9.7032,1.40258 z"
       inkscape:connector-curvature="0" />
    <path
       id="path4220"
       style="fill:#ffffff;opacity:1;stroke:none;fill-opacity:1"
       d="m 1432.0318,-33.565164 c -4.21,-1.13111 -9.1028,-3.30865 -11.66,-5.18934 -2.4234,-1.78224 -6.2255,-4.49193 -8.4492,-6.02154 -4.125,-2.8375 -12.356,-13.72354 -18.0418,-23.86122 -4.5793,-8.165 -6.6611,-20.01685 -5.0478,-28.73852 3.3366,-18.038786 13.399,-39.026266 25.4631,-53.109086 19.9767,-23.31952 36.2681,-34.62444 51.5364,-35.76198 5.686,-0.42362 7.2417,-0.1356 11.8321,2.19052 4.2764,2.16701 5.6626,3.5313 7.262,7.14694 2.5587,5.7844 1.7787,7.91436 -3.9648,10.82698 -2.5719,1.30422 -5.4688,3.24861 -6.4376,4.32089 -0.9689,1.07227 -4.3439,2.80649 -7.5,3.85382 -3.1562,1.04733 -5.9635,2.13115 -6.2385,2.4085 -0.275,0.27734 -2.3,1.38908 -4.5,2.47053 -3.6873,1.81255 -6.1658,3.63001 -15.3476,11.25406 -9.759,8.10342 -26.0888,30.551 -27.7467,38.14184 -0.3169,1.4508 -1.2683,4.437826 -2.1144,6.637826 -0.846,2.2 -1.9087,7.5524 -2.3615,11.89422 -0.7165,6.86998 -0.5715,8.38768 1.117,11.69752 2.2563,4.42259 8.376,8.89974 15.3814,11.25288 6.2261,2.0914 18.0879,2.14262 25.0857,0.10833 6.3333,-1.84114 15.9577,-7.84781 19.6993,-12.2945 5.5843,-6.63654 18.0053,-10.41851 20.9801,-6.38808 0.7187,0.9737 4.3442,4.42861 8.0567,7.67758 6.5298,5.71448 6.75,6.05985 6.75,10.58583 0,3.79328 -0.6521,5.53266 -3.4461,9.19184 -1.8953,2.48228 -5.0453,5.45681 -7,6.61008 -1.9546,1.15327 -3.5539,2.54218 -3.5539,3.08646 0,1.69173 -13.6959,9.08369 -17.6999,9.55307 -2.0901,0.245 -6.7251,0.90425 -10.3001,1.465 -10.2642,1.60999 -23.5773,1.18635 -31.7539,-1.01045 z m 141.0476,4.54686 c -2.8635,-0.77731 -6.6885,-2.03802 -8.5,-2.80158 -5.0281,-2.11936 -13.2621,-9.06423 -15.8215,-13.34448 -1.2598,-2.10682 -3.3475,-4.98399 -4.6394,-6.39371 -2.6551,-2.89722 -4.7015,-9.51903 -6.7794,-21.93687 -2.9409,-17.57441 -3.5531,-23.13685 -3.5434,-32.192626 0.01,-9.11003 2.2653,-32.83724 3.4039,-35.80737 0.3163,-0.825 0.9912,-4.2 1.4998,-7.5 1.7971,-11.66075 4.2488,-21.02148 5.9669,-22.782 2.5627,-2.62605 8.2193,-3.23897 12.2482,-1.32713 5.0674,2.40462 11.5049,8.8994 11.573,11.67591 0.019,0.78827 0.3137,3.79002 0.654,6.67056 0.3678,3.11345 0.052,7.94043 -0.7785,11.9029 -0.7684,3.66606 -1.1614,7.27984 -0.8733,8.03062 0.2881,0.75078 0.04,2.59448 -0.5509,4.0971 -1.1665,2.96551 -2.6725,33.802466 -2.2822,46.732036 0.2931,9.70971 3.5022,26.30167 5.4672,28.26661 1.8448,1.8448 4.6458,0.43973 8.034,-4.03004 2.4327,-3.20931 3.8216,-7.54061 9.5352,-29.73657 1.6282,-6.325 4.2841,-16.449996 5.9021,-22.499996 3.2369,-12.10325 4.5106,-19.46891 6.2254,-36 1.2552,-12.10128 2.7024,-19.29736 4.2867,-21.31594 2.1698,-2.76451 6.5753,-4.26825 9.9323,-3.39016 1.9352,0.5062 4.5772,0.44395 6.5417,-0.15413 2.8928,-0.88066 3.5878,-0.70608 5.6872,1.42848 l 2.3917,2.43175 0.5702,31.5 c 1.064,58.775926 3.1707,74.948236 11.2009,85.984046 9.6247,13.2272 9.5809,18.93825 -0.1455,18.96218 -8.2344,0.0203 -14.3828,-4.35851 -22.4473,-15.98652 -2.1133,-3.04715 -4.6134,-6.18017 -5.5557,-6.96225 -1.9795,-1.64278 -1.6596,-1.98755 -7.997,8.61975 -6.0522,10.13005 -9.1673,13.10687 -18,17.20095 -3.9698,1.84008 -8.0956,2.04579 -13.2063,0.65848 z m 245.2063,8.43071 c -2.9764,-1.73276 -10.5,-9.16575 -10.5,-10.37351 0,-0.57737 -1.1986,-3.29617 -2.6636,-6.0418 l -2.6636,-4.99204 1.3657,-14.5 c 0.9187,-9.75353 1.3815,-29.87254 1.4137,-61.461586 l 0.048,-46.96158 2.6029,-1.46109 c 2.3511,-1.3197 3.2891,-1.24048 9.693,0.81863 6.0687,1.95136 7.7823,2.12969 11.897,1.2381 16.4639,-3.56747 25.1159,-3.98236 34.8065,-1.66906 4.5958,1.09708 6.6368,2.20014 8.7231,4.71438 5.1675,6.22731 2.7944,9.89304 -8.2225,12.70115 -14.8782,3.79229 -24.1856,5.28032 -28.7483,4.5961 l -4.4787,-0.67162 0.7732,10.32829 c 0.4252,5.68056 0.6298,11.67829 0.4545,13.32829 -0.9824,9.24712 0.4418,11.93112 5.9435,11.20141 1.9557,-0.25939 7.1558,-1.2765 11.5558,-2.26025 4.8674,-1.08825 9.1314,-1.50365 10.8893,-1.06086 3.5324,0.88972 13.8375,11.20349 13.4103,13.421596 -0.1845,0.95805 -2.316,2.17699 -5.3041,3.03319 -2.7475,0.78729 -8.5215,2.72148 -12.831,4.29818 -4.3095,1.5767 -8.8876,2.86673 -10.1737,2.86673 -1.286,0 -4.606,0.52347 -7.3778,1.16326 -4.9105,1.13348 -5.052,1.26786 -5.5306,5.25 -1.8469,15.36646 -2.1128,37.64095 -0.4614,38.66154 0.5511,0.34062 7.703,0.89439 15.8931,1.23058 13.7744,0.56543 15.3709,0.83564 21.291,3.60353 8.9925,4.20429 11.581,8.5403 7.8494,13.14854 -1.682,2.07716 -3.0327,2.35275 -15.25,3.11135 -7.3725,0.45778 -16.1045,1.26241 -19.4045,1.78807 -10.9419,1.74292 -22.8605,2.19606 -25,0.95048 z M 1708.5014,-120.72785 c 8.04,-6.08152 18.6989,-16.91616 22.9695,-23.34812 4.0543,-6.10629 5.7071,-15.03646 3.3161,-17.91745 -1.6945,-2.04168 -7.5091,-1.88914 -19.0013,0.49848 -5.225,1.08555 -11.1507,1.97964 -13.1682,1.98686 -6.3121,0.0226 -6.8825,0.59478 -6.3497,6.36872 0.2611,2.82943 0.9682,11.89442 1.5714,20.14442 0.6031,8.25 1.2916,15.60919 1.53,16.35375 0.5802,1.81249 2.4244,0.98722 9.1322,-4.08666 z m 62.4893,108.647776 c -2.8824,-1.4364 -9.524,-6.71593 -14.9463,-11.88117 -13.2405,-12.61282 -35.2367,-36.64351 -40.5087,-44.25542 -2.37,-3.42195 -6.7708,-8.78123 -9.7795,-11.90952 l -5.4705,-5.68781 -0.5485,9.40953 c -0.3017,5.17523 -0.1323,17.36469 0.3764,27.08768 0.5087,9.72299 0.6435,18.79964 0.2995,20.17034 -0.7361,2.93301 -2.7948,3.51133 -13.8177,3.88168 -7.3238,0.24607 -7.8379,0.117 -10.7867,-2.70812 -7.2663,-6.96164 -8.1396,-19.44628 -9.154,-130.865756 -0.1121,-12.31566 0.081,-14.05001 1.7525,-15.71282 3.3166,-3.29998 34.6907,-11.94349 43.3524,-11.94349 5.1897,0 20.8617,2.98642 27.5261,5.24528 13.4178,4.5479 24.4341,15.35194 28.3725,27.82573 1.6261,5.15028 1.4314,15.14494 -0.3407,17.48787 -0.8075,1.06762 -1.4825,2.86941 -1.5,4.00398 -0.046,2.99016 -4.1899,11.12523 -8.7677,17.21277 -5.0872,6.76473 -16.5526,16.858316 -21.9829,19.352556 -2.3203,1.06578 -4.5703,2.55464 -5,3.30859 -0.4296,0.75395 -1.8709,1.52661 -3.2029,1.71702 -3.837,0.54856 -3.5457,2.42598 1.1736,7.56211 2.4177,2.63126 7.2268,8.72057 10.6869,13.53181 3.4601,4.81124 9.2103,11.78624 12.7782,15.5 3.5679,3.71376 7.6787,8.34599 9.1351,10.29385 1.4563,1.94786 5.3479,5.84653 8.6479,8.66371 10.4845,8.95053 13.053,11.8595 14.3788,16.28444 1.2311,4.10924 1.1756,4.40453 -1.2516,6.65516 -3.2302,2.9952203 -5.0224,2.9591403 -11.4222,-0.23 z"
       inkscape:connector-curvature="0" />
  </g>
</svg>
