<?xml version="1.0" encoding="UTF-8" standalone="no"?>
<!-- Created with Inkscape (http://www.inkscape.org/) -->

<svg
   xmlns:dc="http://purl.org/dc/elements/1.1/"
   xmlns:cc="http://creativecommons.org/ns#"
   xmlns:rdf="http://www.w3.org/1999/02/22-rdf-syntax-ns#"
   xmlns:svg="http://www.w3.org/2000/svg"
   xmlns="http://www.w3.org/2000/svg"
   xmlns:sodipodi="http://sodipodi.sourceforge.net/DTD/sodipodi-0.dtd"
   xmlns:inkscape="http://www.inkscape.org/namespaces/inkscape"
   width="393.56021mm"
   height="58.032127mm"
   viewBox="0 0 1394.5046 205.62564"
   id="svg2"
   version="1.1"
   inkscape:version="0.91 r13725"
   inkscape:export-filename="ingredients.png"
   inkscape:export-xdpi="90"
   inkscape:export-ydpi="90"
   sodipodi:docname="ingredients_lettering.svg">
  <defs
     id="defs4" />
  <sodipodi:namedview
     id="base"
     pagecolor="#ffffff"
     bordercolor="#666666"
     borderopacity="1.0"
     inkscape:pageopacity="0.0"
     inkscape:pageshadow="2"
     inkscape:zoom="0.175"
     inkscape:cx="632.65314"
     inkscape:cy="-106.10574"
     inkscape:document-units="px"
     inkscape:current-layer="layer1"
     showgrid="false"
     fit-margin-top="0"
     fit-margin-left="0"
     fit-margin-right="0"
     fit-margin-bottom="0"
     inkscape:window-width="1280"
     inkscape:window-height="755"
     inkscape:window-x="0"
     inkscape:window-y="1"
     inkscape:window-maximized="1" />
  <metadata
     id="metadata7">
    <rdf:RDF>
      <cc:Work
         rdf:about="">
        <dc:format>image/svg+xml</dc:format>
        <dc:type
           rdf:resource="http://purl.org/dc/dcmitype/StillImage" />
        <dc:title />
      </cc:Work>
    </rdf:RDF>
  </metadata>
  <g
     inkscape:label="Layer 1"
     inkscape:groupmode="layer"
     id="layer1"
     transform="translate(-1490.1235,-873.00597)"
     style="opacity:1">
    <path
       style="fill:#ffffff;opacity:1;fill-opacity:1"
       d="m 1506.72,1076.966 c -5.3351,-2.9541 -12,-9.0568 -12,-10.9879 0,-1.0467 1.7351,-2.5658 4.4218,-3.871 4.7927,-2.3285 26.6359,-8.4925 37.1884,-10.4943 l 6.5464,-1.2418 -0.8283,-16.5071 c -0.4556,-9.0789 -0.6903,-36.19461 -0.5216,-60.25711 0.3535,-50.4156 1.711,-45.2861 -11.0493,-41.75 -3.9695,1.1 -9.9263,1.9983 -13.2373,1.9962 -8.0995,-0.01 -23.5457,-2.5859 -25.1195,-4.1971 -2.6518,-2.7147 -2.6635,-6.3332 -0.031,-9.4623 5.0786,-6.0356 9.7572,-8.3313 21.1754,-10.3904 5.9288,-1.0692 15.769,-3.2691 21.8671,-4.8887 6.0981,-1.6197 14.0125,-3.4436 17.5875,-4.0531 3.575,-0.6096 13.25,-3.3954 21.5,-6.1907 15.8734,-5.3783 23.1467,-6.4051 27.7914,-3.9233 3.8252,2.0439 3.9186,3.3695 0.733,10.3952 -2.6116,5.7598 -3.4339,6.6488 -8.7043,9.4095 -3.2011,1.6768 -8.9701,4.0018 -12.8201,5.1665 -3.85,1.1648 -7.566,2.4885 -8.2577,2.9417 -1.399,0.9166 -3.302,49.8522 -3.5852,92.19651 -0.162,24.2273 0.4781,29.0704 4.0216,30.4302 0.8226,0.3157 6.9555,-0.102 13.6286,-0.9281 6.6731,-0.8262 14.01,-1.5021 16.3042,-1.5021 3.9366,0 4.2618,0.2262 5.7799,4.0202 5.1852,12.9593 -1.0238,17.9489 -25.548,20.5308 -16.7256,1.7609 -20.9639,2.7745 -40.04,9.5756 -12.5058,4.4586 -15.4974,5.1512 -23.8034,5.5101 -8.031,0.347 -10.0413,0.1108 -13,-1.5275 z m 1323,-5.6987 c -0.825,-0.2917 -6,-2.7153 -11.5,-5.3858 -5.5,-2.6704 -15.6739,-7.5943 -22.6086,-10.9418 -19.6148,-9.4686 -25.8003,-15.2615 -26.5169,-24.8339 -0.1876,-2.505 -1.1048,-5.3985 -2.0383,-6.43 -1.6166,-1.7863 -1.4868,-2.0909 2.7333,-6.4113 3.5809,-3.666 4.9286,-4.4383 7.0283,-4.0272 1.4288,0.2797 12.2288,4.6372 24,9.6832 33.1425,14.2074 35.4577,14.7822 43.6231,10.8294 5.2967,-2.5641 8.6748,-7.2895 11.362,-15.8931 l 2.0301,-6.5 -7.8065,-7.5359 c -6.8477,-6.61041 -9.1575,-8.12431 -18.8065,-12.32621 -41.2334,-17.9562 -40.708,-17.6344 -48.6148,-29.7788 -2.9933,-4.5975 -6.0565,-9.7091 -6.8071,-11.3591 -1.8459,-4.0575 -2.6557,-23.2199 -1.1714,-27.7174 3.8846,-11.7704 28.1285,-27.4405 44.0933,-28.4997 8.0334,-0.533 28.6013,2.8569 34.365,5.6638 2.2743,1.1076 6.9475,4.3244 10.385,7.1486 5.3805,4.4204 6.25,5.5967 6.25,8.4547 0,1.8259 -0.4389,4.4741 -0.9752,5.8849 -1.5319,4.0292 -7.1256,3.5153 -16.7159,-1.5355 l -7.7861,-4.1007 -8.6835,1.6781 c -14.2128,2.7467 -24.1291,7.3323 -33.4209,15.4551 -2.2449,1.9625 -5.0574,4.3512 -6.25,5.3083 -4.5177,3.6257 -1.7998,13.9901 4.817,18.3688 2.02,1.3368 12.4316,6.386 23.1368,11.2204 10.7051,4.8344 21.6946,10.2872 24.4209,12.1174 7.2018,4.8346 28.3815,26.72921 32.4018,33.49561 5.5743,9.3819 5.275,19.4386 -0.9394,31.5576 -0.9871,1.925 -2.8247,5.4842 -4.0834,7.9093 -2.5742,4.9592 -11.6876,14.3671 -16.349,16.877 -2.2996,1.2383 -6.2194,1.7177 -15.5731,1.9047 -6.875,0.1375 -13.175,0.011 -14,-0.2805 z m -944.3725,-2.8787 c -9.6911,-3.4544 -16.1651,-12.7739 -17.2974,-24.8999 -0.3908,-4.1845 -1.1401,-7.0055 -1.9428,-7.3135 -0.7186,-0.2758 -5.2622,1.3032 -10.0969,3.5088 -4.8347,2.2056 -10.5904,4.4942 -12.7904,5.0859 -14.0263,3.7722 -36.8343,-2.4415 -48.112,-13.1074 -6.5976,-6.2398 -9.4492,-11.4544 -12.525,-22.904 -5.2944,-19.70841 -1.628,-42.48921 10.8384,-67.34391 5.3549,-10.6763 9.5968,-17.0979 21.8369,-33.0578 10.7304,-13.9915 17.6667,-21.3772 25.8508,-27.5259 5.3679,-4.0328 6.4847,-4.4581 12.6187,-4.8047 7.621,-0.4306 10.2974,0.5864 12.4382,4.7263 1.0957,2.1188 1.2263,3.6923 0.5161,6.2203 -1.4721,5.2398 -3.8292,8.1003 -12.2296,14.8413 -4.2721,3.4282 -9.0554,8.1028 -10.6295,10.3879 -1.5741,2.2852 -4.7162,6.3966 -6.9825,9.1365 -2.2663,2.7399 -4.1205,5.3492 -4.1205,5.7985 0,0.4493 -3.3856,6.1609 -7.5236,12.6925 -12.2192,19.2876 -21.5797,42.2639 -23.4939,57.6682 -1.7382,13.98791 0.1566,18.09911 10.6353,23.07541 6.5472,3.1092 8.1461,3.4847 12.7962,3.0047 9.7362,-1.0048 19.9486,-6.3967 25.2296,-13.3204 2.8755,-3.7699 5.3621,-11.66261 4.5967,-14.58971 -0.4831,-1.8474 -11.3442,-7.8109 -14.2257,-7.8109 -2.0524,0 -6.0146,-4.07 -6.0146,-6.1781 0,-2.224 4.5786,-6.4874 7.7744,-7.2393 1.4991,-0.3526 8.8006,-0.9106 16.2256,-1.2398 19.5717,-0.8679 30.8907,1.664 37.1864,8.3179 6.159,6.5096 7.1659,18.1711 3.3966,39.33931 -1.42,7.975 -3.0706,21.7 -3.668,30.5 -1.3145,19.3615 -1.7463,20.0764 -10.2875,17.0318 z m 828.9476,-1.6525 c -3.4152,-2.0837 -6.4365,-6.1918 -11.0425,-15.0144 -7.4213,-14.2153 -7.8844,-17.651 -6.9232,-51.3649 0.8866,-31.09841 0.8329,-80.99131 -0.093,-86.13521 l -0.5641,-3.1351 -16.7263,-0.4008 -16.726,-0.4008 -6.3014,-3.3808 c -5.8514,-3.1393 -11.1986,-7.9704 -11.1986,-10.1178 0,-1.9232 8.1951,-6.7288 15.6896,-9.2002 11.9375,-3.9366 53.8396,-8.7293 76.3191,-8.7293 12.6431,0 19.0475,1.2476 26.9037,5.2407 7.0726,3.5949 9.6756,6.4849 10.5914,11.7593 1.161,6.6862 0.6338,6.8691 -24.5051,8.4991 -12.3743,0.8023 -23.6237,1.4751 -24.9987,1.4952 -4.5463,0.066 -5.1881,1.2138 -3.0376,5.4319 1.0706,2.0999 2.4006,6.1256 2.9556,8.9459 2.9583,15.0322 3.9873,53.2011 2.0255,75.1279 -1.8905,21.12961 -2.239,39.62761 -0.923,49.00001 2.098,14.9423 2.2347,18.8294 0.7329,20.8515 -1.6727,2.2523 -9.4017,3.2219 -12.1783,1.5278 z m -115.9354,-4.9945 c -8.3947,-5.5605 -17.4672,-20.2799 -50.1625,-81.38481 -6.4743,-12.1 -12.8396,-23.6127 -14.1451,-25.5838 -2.7965,-4.2221 -6.1193,-7.9161 -7.1211,-7.9165 -0.391,-2e-4 -0.711,23.141 -0.711,51.4249 0,50.66881 -0.031,51.46691 -2.0989,54.25031 -3.3522,4.5121 -7.4306,4.317 -13.887,-0.664 -2.9415,-2.2694 -7.3624,-6.2795 -9.8242,-8.9113 l -4.476,-4.7853 -0.5805,-10.4071 c -0.3192,-5.724 -0.8195,-29.30721 -1.1118,-52.40721 -0.2923,-23.1 -1.0631,-50.1778 -1.7129,-60.173 -1.4101,-21.6901 -1.3514,-21.8692 6.8887,-21.0188 2.9625,0.3058 7.4913,1.7582 10.3736,3.3269 7.0751,3.8508 22.4754,19.3744 29.2338,29.4678 3.0924,4.6184 8.388,12.4471 11.7681,17.3971 8.8644,12.9817 13.0429,19.8863 21.0492,34.7817 7.1788,13.3559 9.7346,17.1949 10.7629,16.1666 0.3102,-0.3101 0.8449,-23.8254 1.1884,-52.2561 0.6761,-55.9764 0.7904,-57.0912 6.2166,-60.6466 1.3514,-0.8854 4.6776,-1.8729 7.3915,-2.1943 4.7996,-0.5684 5.1032,-0.4441 11.0983,4.5451 3.39,2.8212 6.6902,6.1133 7.3337,7.3157 1.2624,2.3587 0.6472,21.3363 -1.0916,33.6763 -2.8701,20.3683 -4.9636,94.84641 -3.0951,110.11161 2.4254,19.8152 2.5299,24.8379 0.562,27.0124 -2.7537,3.0428 -8.2254,2.5973 -13.8491,-1.1276 z M 2540.72,943.92489 c 0,-0.5126 -1.35,-1.8932 -3,-3.0681 -3.5084,-2.4982 -3.9361,-1.6253 -0.8257,1.6855 2.2668,2.4129 3.8257,2.9763 3.8257,1.3826 z m -794.5,116.19831 c -6.1826,-3.873 -10.3577,-8.1503 -15.2442,-15.6173 -4.2825,-6.5441 -19.3937,-36.9 -28.9467,-58.14911 -8.8137,-19.6047 -20.8518,-41.5 -22.8168,-41.5 -0.3014,0 -0.5047,21.9375 -0.4519,48.75 0.053,26.81251 -0.2752,49.65001 -0.7289,50.75001 -0.4538,1.1 -2.5234,4.5875 -4.599,7.75 -3.5575,5.4202 -4.0045,5.75 -7.7929,5.75 -5.1673,0 -8.6416,-1.843 -13.397,-7.1066 l -3.8271,-4.2361 0.6573,-21.5787 c 0.7315,-24.0162 -0.7548,-84.38601 -2.6518,-107.70681 -1.3216,-16.247 -0.9908,-20.2787 1.9311,-23.5362 1.7013,-1.8968 2.6259,-2.0322 10.3679,-1.5185 14.1952,0.942 14.248,0.9803 27.1968,19.6829 3.6176,5.225 10.4453,16.25 15.1728,24.5 11.1796,19.5097 20.8723,34.8003 22.1304,34.9116 0.6106,0.054 1.4403,-8.8675 2.1307,-22.9116 3.2879,-66.8789 3.7825,-69.9666 11.7879,-73.6024 5.6925,-2.5854 8.6493,-2.3554 13.3321,1.0368 5.6496,4.0926 8.5153,13.8554 6.3492,21.6303 -0.603,2.1644 -1.7752,13.6103 -2.605,25.4353 -1.335,19.0243 -1.3428,27.1423 -0.068,70.5 1.1689,39.75841 1.7435,49.84631 3.0462,53.48731 1.8413,5.1459 2.274,10.6666 0.9403,11.9971 -0.5024,0.5012 -2.4884,1.5585 -4.4134,2.3495 -3.2902,1.352 -3.7398,1.288 -7.5,-1.0675 z m 590.9122,1.7624 c -3.5825,-1.4489 -11.7451,-11.5354 -15.6622,-19.3536 l -3.75,-7.4847 0.014,-46.84531 c 0.01,-25.7648 -0.4935,-57.4202 -1.1131,-70.3452 -1.318,-27.4936 -1.0657,-29.0092 4.8248,-28.9835 8.1795,0.036 17.5919,9.246 18.6615,18.2609 0.2755,2.3224 1.0178,7.8226 1.6495,12.2226 1.982,13.8051 2.6503,19.5143 4.331,37 1.3558,14.1047 3.5921,44.29321 3.5558,48.00001 -0.038,3.8705 -1.712,55.0369 -1.8054,55.1786 -2.0828,3.161 -6.3723,4.1027 -10.7054,2.3502 z M 2018.6119,1058.1 c -9.7577,-5.0921 -20.4066,-16.8071 -45.671,-50.2432 -6.5369,-8.65121 -15.3314,-18.00001 -16.9328,-18.00001 -0.7611,0 -1.2294,8.3755 -1.5238,27.25001 -0.4254,27.2673 -1.1251,32.907 -4.2308,34.0987 -2.2942,0.8804 -12.8531,-4.9285 -17.2362,-9.4823 -6.7637,-7.0273 -7.2973,-9.227 -7.2973,-30.0843 -10e-5,-23.97961 2.7329,-98.12981 3.9822,-108.04331 0.5379,-4.2686 1.6768,-9.1126 2.531,-10.7643 4.9059,-9.487 29.3687,-19.1938 48.4868,-19.2396 12.9829,-0.031 28.5133,6.5066 39.905,16.7983 l 4.095,3.6995 0,10.7223 0,10.7223 -4.8657,9.9114 c -7.0723,14.4063 -16.9301,23.3998 -38.2554,34.9013 -6.9416,3.7438 -13.6916,7.6211 -15,8.616 l -2.3789,1.8091 7.5684,7.7925 c 11.8305,12.1806 16.6857,17.9025 27.8882,32.86671 5.7337,7.6592 15.0027,18.4257 20.5977,23.9257 5.595,5.5 10.6841,10.9829 11.3092,12.1843 1.5965,3.0683 1.4144,8.8401 -0.3243,10.2831 -2.6209,2.1752 -8.7514,2.3089 -12.6473,0.2758 z M 1966.72,938.54699 c 24.7182,-16.4133 32.9685,-26.1553 32.9902,-38.9549 0.01,-5.4349 -0.1761,-5.878 -3.2402,-7.7463 -2.6093,-1.5909 -5.0428,-1.9823 -12.3435,-1.9853 -9.8437,0 -17.1517,1.8988 -25.0346,6.5185 -5.4234,3.1783 -5.706,4.5315 -5.7669,27.6094 -0.062,23.6017 -0.1235,23.5351 13.395,14.5586 z m 435.427,117.89601 c -2.9419,-1.2836 -10.9995,-10.9249 -14.0331,-16.7913 -1.8841,-3.6434 -3.0162,-13.0302 -4.3773,-36.2949 -0.6115,-10.45001 -1.6127,-24.85001 -2.2251,-32.00001 -0.6123,-7.15 -1.2834,-22.6355 -1.4912,-34.4121 l -0.3779,-21.4122 -2.9612,-3.3726 c -3.4832,-3.9671 -3.4958,-4.0629 -0.9612,-7.3031 1.0755,-1.375 1.9655,-3.2875 1.9777,-4.25 0.012,-0.9625 0.9729,-2.7007 2.1349,-3.8626 1.6273,-1.6273 2.8977,-1.9851 5.5311,-1.5578 1.8803,0.3051 8.0171,-0.1668 13.6375,-1.0486 16.7581,-2.6295 44.9988,-1.9904 49.2449,1.1145 1.1284,0.825 1.4979,1.9535 1.0755,3.2842 -0.8981,2.8296 -19.8493,11.6629 -31.5324,14.6973 -5.1078,1.3267 -9.9753,3.1005 -10.8166,3.9418 -1.3728,1.3728 -1.3635,3.6455 0.091,22.1717 0.8913,11.3532 1.8801,21.0623 2.1975,21.5758 0.8882,1.437 4.1493,1.1444 17.4591,-1.5663 19.6706,-4.0062 24.7722,-3.1756 28.958,4.7148 l 2.3847,4.4952 -2.0985,2.9471 c -5.6985,8.0028 -29.9951,14.1978 -40.4936,10.3248 -2.3685,-0.8738 -4.0974,-1.0331 -4.6946,-0.4325 -0.9226,0.9277 0.3382,38.32981 1.4552,43.17171 0.7583,3.2869 3.987,4.539 13.8091,5.3549 10.19,0.8465 18.202,3.5667 24.8966,8.4528 7.7608,5.6642 9.8477,12.7607 4.5816,15.5791 -1.3373,0.7156 -10.8855,1.4499 -24.7382,1.9023 -12.4082,0.4052 -23.2353,1.0023 -24.0603,1.3268 -0.825,0.3245 -2.8829,-0.013 -4.573,-0.7508 z m -205.4335,-0.4756 c -7.4944,-2.4141 -15.9935,-10.064 -15.9935,-14.3956 0,-1.2535 -0.6935,-4.7397 -1.541,-7.7471 -0.8475,-3.0073 -1.9175,-6.8963 -2.3776,-8.6422 -0.4602,-1.7459 -1.0042,-33.87231 -1.209,-71.39201 l -0.3724,-68.2176 3.2147,-1.5228 c 2.882,-1.3651 4.0264,-1.3628 11.0603,0.023 9.912,1.9528 15.6679,4.6899 31.1384,14.8077 34.269,22.4123 44.6113,32.6484 52.2425,51.7065 4.4396,11.0872 6.1889,22.4177 5.5473,35.9294 -0.6163,12.9804 -2.0254,16.93721 -9.1179,25.60331 -7.5376,9.2099 -29.5724,25.1829 -51.2195,37.1288 -12.2538,6.7622 -16.8002,8.1914 -21.3723,6.7186 z m 27.8414,-51.3416 c 13.7487,-9.30221 25.5934,-20.79521 27.0728,-26.26901 2.0794,-7.6934 0.8962,-23.2584 -2.5785,-33.9212 -0.9032,-2.7716 -3.4002,-6.8726 -5.7165,-9.3886 -7.3902,-8.0275 -33.7252,-24.1902 -39.4145,-24.1902 -2.036,0 -2.2833,0.3746 -1.8155,2.75 2.135,10.8413 4.6119,51.0596 4.6148,74.9349 10e-4,11.1017 0.4391,21.33321 0.9726,22.73661 0.858,2.2567 1.2725,2.4368 3.585,1.5576 1.4381,-0.5468 7.4141,-4.2413 13.2798,-8.2101 z m -152.8349,46.3306 c -6.9379,-4.4131 -9.7602,-8.0441 -12.4894,-16.0684 -3.513,-10.3286 -3.3996,-19.8268 0.9735,-81.53121 0.8186,-11.55 1.9037,-27.8791 2.4113,-36.2869 1.0888,-18.0341 1.5841,-19.1388 10.4375,-23.2815 11.7502,-5.4983 20.5866,-7.2385 37.1671,-7.3196 17.8925,-0.088 26.5,1.4062 26.5,4.5987 0,2.4687 -1.9888,4.1989 -7.8793,6.8546 -2.4086,1.086 -5.7802,3.1533 -7.4925,4.594 -4.4506,3.745 -10.3785,6.0443 -21.374,8.2906 -14.0873,2.8778 -13.4695,1.7356 -14.4496,26.7146 -0.4768,12.1502 -0.4411,21.099 0.086,21.6262 0.5326,0.5326 5.5307,-0.1324 12.2543,-1.6305 14.1839,-3.1602 27.4322,-4.9831 30.5425,-4.2025 3.1864,0.7998 6.3041,6.1657 6.3087,10.858 0.01,7.7381 -2.9833,9.8237 -17.4187,12.1466 -5.3449,0.8601 -12.4989,2.5023 -15.8978,3.6494 -4.4108,1.4886 -7.8435,1.9663 -11.9918,1.6687 -4.7122,-0.3381 -5.9831,-0.097 -6.7156,1.2713 -0.8827,1.6493 -2.6827,44.83041 -1.8787,45.06891 0.2235,0.066 10.9813,0.4192 23.9063,0.7843 15.0679,0.4256 24.2642,1.0895 25.6298,1.8503 2.3226,1.2939 5.3702,7.8941 5.3702,11.6302 0,4.1069 -3.542,7.3777 -9.2791,8.5688 -6.6735,1.3854 -28.3956,2.9844 -40.7209,2.9976 -8.7482,0.01 -9.856,-0.2163 -14,-2.8522 z"
       id="path4327"
       inkscape:connector-curvature="0"
       inkscape:export-filename="./path4327.png"
       inkscape:export-xdpi="90"
       inkscape:export-ydpi="90" />
  </g>
</svg>
